<svg width="34" height="30" viewBox="0 0 34 30" fill="none" xmlns="http://www.w3.org/2000/svg">
<path d="M30.3211 3.4754C29.5514 2.69063 28.6375 2.06809 27.6317 1.64335C26.6259 1.21861 25.5478 1 24.459 1C23.3703 1 22.2922 1.21861 21.2863 1.64335C20.2805 2.06809 19.3667 2.69063 18.597 3.4754L16.9996 5.10333L15.4022 3.4754C13.8475 1.89096 11.7389 1.00082 9.54018 1.00082C7.34149 1.00082 5.23285 1.89096 3.67814 3.4754C2.12343 5.05985 1.25 7.20882 1.25 9.44957C1.25 11.6903 2.12343 13.8393 3.67814 15.4237L8.77551 20.5517L15.5665 27.5278C16.3517 28.3344 17.6475 28.3344 18.4327 27.5278L25.2237 20.5517L30.3211 15.4237C31.0911 14.6393 31.702 13.708 32.1187 12.6829C32.5355 11.6579 32.75 10.5592 32.75 9.44957C32.75 8.33999 32.5355 7.24129 32.1187 6.21622C31.702 5.19115 31.0911 4.25981 30.3211 3.4754Z" stroke="white" stroke-width="2" stroke-linecap="round" stroke-linejoin="round"/>
</svg>
