<svg width="18" height="20" viewBox="0 0 18 20" fill="none" xmlns="http://www.w3.org/2000/svg">
<path d="M13 19C15.3912 17.7294 17 15.3547 17 12.6348C17 8.57644 10.1428 1 10.1428 1C10.1428 1 8.65718 5.37664 4.42857 7.32769C2.14286 8.3823 1 10.5839 1 12.6348C1 15.3547 2.6088 17.7294 5 19" stroke="white" stroke-linecap="round" stroke-linejoin="round"/>
<path d="M10.5 18C11.3967 17.4353 12 16.3799 12 15.171C12 13.3673 9 10 9 10C9 10 8.4753 10.5889 7.86477 11.4062C8.5289 11.7186 9.79091 13.6829 9 15.171C8.48383 16.1422 6.81628 15.6 6.28682 14C6.10957 14.4245 6 14.8263 6 15.171C6 16.3799 6.6033 17.4353 7.5 18" stroke="white" stroke-linecap="round" stroke-linejoin="round"/>
</svg>
